<svg width="210" height="100" viewBox="0 0 210 100" fill="none" xmlns="http://www.w3.org/2000/svg">
<path fill-rule="evenodd" clip-rule="evenodd" d="M91.7312 22.4491L52 49.6122L92.0811 77.0146C83.1862 90.8416 67.6626 100 50 100C22.3858 100 0 77.6142 0 50C0 22.3858 22.3858 0 50 0C67.4333 0 82.7827 8.92203 91.7312 22.4491Z" fill="white"/>
<path d="M84.623 55.62L71.76 51.554V49.369L84.623 45.322V47.64L75.123 50.471L84.623 53.302V55.62ZM93.7019 56.095C91.1939 56.095 89.2749 55.5187 87.9449 54.366C86.6149 53.2007 85.9499 51.478 85.9499 49.198C85.9499 46.9307 86.6149 45.2143 87.9449 44.049C89.2749 42.8837 91.1939 42.3073 93.7019 42.32L100.542 42.358V44.79H93.9109C92.2642 44.79 91.0419 45.1383 90.2439 45.835C89.4459 46.5317 89.0469 47.6527 89.0469 49.198C89.0469 50.7433 89.4459 51.8707 90.2439 52.58C91.0419 53.2767 92.2642 53.625 93.9109 53.625H100.732V56.095H93.7019ZM109.118 56.095C106.698 56.095 104.824 55.5187 103.494 54.366C102.164 53.2007 101.499 51.478 101.499 49.198C101.499 46.9307 102.164 45.2207 103.494 44.068C104.824 42.9027 106.743 42.32 109.251 42.32H112.671C115.179 42.32 117.098 42.9027 118.428 44.068C119.758 45.2207 120.423 46.9307 120.423 49.198C120.423 51.478 119.758 53.2007 118.428 54.366C117.098 55.5187 115.21 56.095 112.766 56.095H109.118ZM109.46 44.79C108.054 44.79 106.958 45.0433 106.173 45.55C105.387 46.0567 104.893 46.861 104.691 47.963H117.231C117.028 46.861 116.534 46.0567 115.749 45.55C114.963 45.0433 113.868 44.79 112.462 44.79H109.46ZM109.517 53.625H112.462C113.88 53.625 114.976 53.3717 115.749 52.865C116.534 52.3583 117.028 51.5477 117.231 50.433H104.691C104.893 51.5477 105.387 52.3583 106.173 52.865C106.958 53.3717 108.073 53.625 109.517 53.625ZM122.316 56V42.415H124.558L130.638 42.396C133.096 42.396 135.002 42.9723 136.357 44.125C137.713 45.2777 138.39 46.9687 138.39 49.198C138.39 51.4273 137.713 53.1183 136.357 54.271C135.002 55.4237 133.096 56 130.638 56H122.316ZM130.429 44.866H125.356V53.53H130.429C132.025 53.53 133.235 53.1817 134.058 52.485C134.882 51.7883 135.293 50.6927 135.293 49.198C135.293 47.6907 134.882 46.595 134.058 45.911C133.235 45.2143 132.025 44.866 130.429 44.866ZM140.296 56V42.415H155.192V44.885H143.336V47.887H154.09V50.357H143.336V53.53H155.192V56H140.296ZM157.273 56V42.415H168.654C170.06 42.415 171.15 42.7697 171.922 43.479C172.708 44.1883 173.1 45.265 173.1 46.709C173.1 47.9377 172.815 48.9003 172.245 49.597C171.675 50.2937 170.865 50.7307 169.813 50.908L172.948 56H169.49L166.583 51.003H160.313V56H157.273ZM168.293 44.885H160.313V48.514L168.293 48.533C168.851 48.533 169.275 48.3937 169.566 48.115C169.87 47.8363 170.022 47.3677 170.022 46.709C170.022 46.0377 169.87 45.569 169.566 45.303C169.275 45.0243 168.851 44.885 168.293 44.885ZM180.79 59.667L189.72 41.883H192.171L183.241 59.667H180.79ZM193.033 45.322L205.896 49.388V51.573L193.033 55.62V53.302L202.533 50.471L193.033 47.64V45.322Z" fill="white"/>
</svg>
